<svg aria-hidden="true" style="position: absolute; width: 0; height: 0; overflow: hidden;" version="1.1" xmlns="http://www.w3.org/2000/svg" xmlns:xlink="http://www.w3.org/1999/xlink">
<defs>
<symbol id="icon-vector-3" viewBox="0 0 32 32">
<path d="M18.088 15.585l12.282-12.195c0.243-0.281 0.369-0.643 0.355-1.014s-0.169-0.721-0.433-0.983c-0.264-0.262-0.617-0.415-0.99-0.43s-0.737 0.112-1.021 0.353l-12.281 12.195-12.281-12.209c-0.279-0.277-0.657-0.433-1.052-0.433s-0.773 0.156-1.052 0.433c-0.279 0.277-0.436 0.653-0.436 1.044s0.157 0.767 0.436 1.044l12.296 12.195-12.296 12.195c-0.155 0.132-0.281 0.294-0.37 0.477s-0.139 0.381-0.147 0.584 0.026 0.405 0.101 0.593c0.074 0.189 0.187 0.36 0.332 0.504s0.317 0.255 0.507 0.329c0.19 0.074 0.394 0.108 0.598 0.1s0.404-0.057 0.588-0.146 0.347-0.213 0.48-0.367l12.296-12.195 12.281 12.195c0.283 0.241 0.648 0.367 1.021 0.353s0.727-0.168 0.99-0.43c0.264-0.262 0.418-0.613 0.433-0.983s-0.112-0.732-0.355-1.014l-12.282-12.195z"></path>
</symbol>
<symbol id="icon-telegram" viewBox="0 0 32 32">
<path fill="#f8d24e" style="fill: var(--color1, #f8d24e)" d="M32 16c0 8.837-7.163 16-16 16s-16-7.163-16-16c0-8.837 7.163-16 16-16s16 7.163 16 16z"></path>
<path fill="#84a178" style="fill: var(--color2, #84a178)" d="M12.868 18.375l-0.318 4.169c0.454 0 0.651-0.182 0.887-0.401l2.13-1.9 4.415 3.017c0.81 0.421 1.38 0.199 1.599-0.695l2.898-12.672 0.001-0.001c0.257-1.117-0.433-1.554-1.222-1.28l-17.032 6.086c-1.162 0.421-1.145 1.026-0.198 1.3l4.355 1.264 10.115-5.907c0.476-0.294 0.909-0.131 0.553 0.163l-8.182 6.857z"></path>
</symbol>
<symbol id="icon-facebook" viewBox="0 0 32 32">
<path fill="#f8d24e" style="fill: var(--color1, #f8d24e)" d="M16 32c8.837 0 16-7.163 16-16s-7.163-16-16-16c-8.837 0-16 7.163-16 16s7.163 16 16 16z"></path>
<path fill="#84a178" style="fill: var(--color2, #84a178)" d="M20.446 15.982h-2.61v9.619h-3.955v-9.619h-1.881v-3.38h1.881v-2.187c0-1.564 0.739-4.014 3.99-4.014l2.929 0.012v3.281h-2.125c-0.349 0-0.839 0.175-0.839 0.921v1.989h2.955l-0.346 3.377z"></path>
</symbol>
<symbol id="icon-github" viewBox="0 0 32 32">
<path fill="#f8d24e" style="fill: var(--color1, #f8d24e)" d="M32 16c0 8.837-7.163 16-16 16s-16-7.163-16-16c0-8.837 7.163-16 16-16s16 7.163 16 16z"></path>
<path fill="#84a178" style="fill: var(--color2, #84a178)" d="M16 6.588c-5.169 0-9.412 4.242-9.412 9.412 0 4.411 3.095 8.419 7.206 9.412v-3.114c-0.407 0.089-0.782 0.092-1.197-0.030-0.556-0.164-1.008-0.535-1.344-1.1-0.214-0.361-0.593-0.752-0.988-0.723l-0.097-1.099c0.855-0.073 1.595 0.521 2.034 1.259 0.195 0.328 0.419 0.52 0.708 0.605 0.278 0.082 0.578 0.043 0.926-0.080 0.088-0.698 0.407-0.959 0.648-1.326v-0.001c-2.451-0.366-3.428-1.666-3.816-2.693-0.514-1.363-0.238-3.066 0.671-4.142 0.018-0.021 0.050-0.076 0.037-0.114-0.417-1.258 0.091-2.299 0.11-2.41 0.481 0.142 0.559-0.143 2.089 0.786l0.264 0.159c0.111 0.066 0.076 0.028 0.186 0.020 0.639-0.173 1.312-0.269 1.975-0.278 0.668 0.009 1.337 0.104 2.002 0.285l0.086 0.009c-0.007-0.001 0.023-0.005 0.075-0.036 1.911-1.157 1.842-0.779 2.355-0.946 0.019 0.111 0.519 1.169 0.107 2.411-0.056 0.171 1.657 1.739 0.708 4.256-0.388 1.027-1.365 2.328-3.816 2.693v0.001c0.314 0.479 0.692 0.734 0.69 1.722v3.887c4.111-0.993 7.206-5 7.206-9.412 0-5.169-4.242-9.412-9.412-9.412v0z"></path>
</symbol>
<symbol id="icon-ice-crema" viewBox="0 0 31 32">
<path fill="#f8d24e" style="fill: var(--color1, #f8d24e)" d="M15.686 0c8.663 0 15.686 7.023 15.686 15.686v0.008c0 8.663-7.023 15.686-15.686 15.686s-15.686-7.023-15.686-15.686v-0.008c0-8.663 7.023-15.686 15.686-15.686z"></path>
<path fill="#000" style="fill: var(--color2, #000)" d="M15.763 4.468c0.057 0.151 0.17 0.884 0.17 1.111 0 0.562-0.208 1.087-0.591 1.498-0.317 0.34-0.633 0.529-1.394 0.836-0.846 0.345-1.196 0.553-1.592 0.945-0.402 0.402-0.638 0.841-0.723 1.356-0.095 0.562 0 0.959 0.288 1.186l0.146 0.113-0.232 0.146c-0.468 0.307-1.318 1.030-1.465 1.252-0.284 0.425-0.255 0.822 0.066 0.983l0.151 0.076-0.17 0.161c-0.255 0.241-0.307 0.406-0.269 0.841 0.024 0.288 0.014 0.444-0.052 0.68-0.080 0.307-0.080 0.312 0.024 0.529 0.104 0.213 0.397 0.482 0.662 0.595 0.128 0.057 0.132 0.076 0.161 0.51 0.014 0.25 0.038 1.049 0.057 1.777 0.014 0.728 0.047 1.394 0.076 1.474 0.024 0.085 0.113 0.198 0.194 0.255 0.274 0.189 0.463 0.392 0.586 0.629 0.137 0.269 0.288 0.931 0.747 3.218l0.321 1.607 0.199 0.189c0.378 0.373 1.101 0.543 2.292 0.543 1.196 0 1.909-0.165 2.287-0.539l0.203-0.194 0.293-1.488c0.647-3.256 0.704-3.436 1.21-3.837 0.156-0.128 0.307-0.284 0.335-0.354 0.033-0.080 0.066-0.699 0.090-1.635 0.019-0.832 0.047-1.654 0.066-1.829l0.028-0.317 0.307-0.232c0.387-0.298 0.539-0.567 0.539-0.983-0.005-0.491-0.326-1.030-0.912-1.512l-0.279-0.227 0.137-0.194c0.572-0.789 0.213-1.881-0.851-2.608l-0.321-0.222 0.118-0.123c0.524-0.562 0.61-2.24 0.17-3.407-0.265-0.695-0.87-1.451-1.611-2.008-0.364-0.274-1.366-0.879-1.456-0.879-0.019 0-0.019 0.033-0.005 0.076zM17.124 6.117c0.25 0.246 0.553 0.581 0.671 0.751 0.704 0.983 0.884 2.216 0.458 3.124-0.17 0.369-0.68 0.917-1.153 1.243-0.723 0.501-2.349 1.342-3.483 1.805-1.824 0.742-2.883 0.884-3.005 0.397-0.047-0.184 0.090-0.331 0.671-0.718 0.525-0.359 2.878-2.108 2.92-2.178 0.014-0.019-0.227 0.090-0.529 0.241-1.025 0.52-1.512 0.421-1.489-0.302 0.014-0.525 0.392-1.12 0.917-1.46 0.132-0.085 0.543-0.274 0.921-0.425 1.243-0.501 1.621-0.756 2.041-1.385 0.25-0.373 0.525-1.063 0.543-1.356 0.005-0.104 0.024-0.184 0.038-0.184s0.227 0.203 0.477 0.449zM18.414 11.485c0.345 0.194 0.704 0.525 0.86 0.784 0.274 0.468 0.132 0.936-0.458 1.531-0.643 0.652-1.739 1.276-2.944 1.673-1.111 0.364-2.174 0.534-3.695 0.586l-0.945 0.033 0.614 0.038c0.794 0.052 2.33 0.005 2.925-0.090 1.583-0.25 2.93-0.751 3.894-1.441 0.217-0.156 0.444-0.284 0.506-0.284 0.156 0 0.836 0.652 0.974 0.926 0.076 0.156 0.095 0.269 0.080 0.421-0.071 0.629-0.836 0.964-2.684 1.186-2.259 0.269-5.212 0.005-6.474-0.576-0.595-0.274-0.695-0.43-0.543-0.846 0.047-0.132 0.057-0.288 0.038-0.51-0.024-0.293-0.019-0.331 0.085-0.439 0.236-0.255 0.633-0.402 2.089-0.77 0.51-0.132 1.205-0.34 1.536-0.463 0.803-0.293 2.311-1.054 3.010-1.522 0.657-0.435 0.751-0.454 1.134-0.236zM12.138 17.269c0.992 0.288 1.871 0.373 3.506 0.34 1.229-0.024 1.985-0.099 3.076-0.293 0.222-0.038 0.416-0.071 0.44-0.071 0.052 0 0.038 1.815-0.019 2.292-0.061 0.506-0.198 0.898-0.345 0.992-0.151 0.099-0.907 0.203-1.919 0.26-2.075 0.113-4.206 0-4.867-0.265-0.359-0.146-0.397-0.335-0.402-2.089 0-1.167 0.009-1.328 0.071-1.304 0.038 0.014 0.246 0.076 0.458 0.137zM13.258 21.286c0.34 0.043 0.709 0.085 0.822 0.099l0.203 0.024-0.18 0.198c-0.232 0.25-0.586 0.751-0.714 1.007-0.146 0.293-0.194 0.312-0.411 0.194l-0.184-0.104-0.104-0.643c-0.057-0.35-0.118-0.685-0.132-0.742-0.043-0.123-0.085-0.123 0.699-0.033zM18.296 21.234c0 0.009-0.024 0.132-0.047 0.269-0.028 0.142-0.146 0.912-0.265 1.715-0.241 1.678-0.402 2.467-0.548 2.731-0.203 0.354-0.69 0.562-1.479 0.628-0.307 0.024-1.233-0.038-1.285-0.085-0.038-0.043 0.775-1.049 0.903-1.115 0.118-0.066 0.151-0.057 0.553 0.151 0.468 0.246 0.704 0.283 0.704 0.128s-0.123-0.307-0.425-0.515c-0.279-0.198-0.378-0.312-0.378-0.444 0-0.038 0.137-0.25 0.302-0.473s0.406-0.576 0.529-0.789l0.232-0.383 0.213 0.028c0.43 0.061 0.543 0.057 0.529-0.038-0.009-0.047-0.090-0.184-0.18-0.298-0.090-0.118-0.161-0.236-0.161-0.26 0-0.090 0.439-0.917 0.581-1.092 0.123-0.151 0.222-0.227 0.222-0.161zM15.342 21.612c0.236 0.156 1.125 0.926 1.181 1.021 0.024 0.043-0.888 1.47-1.068 1.673-0.019 0.024-0.118-0.024-0.217-0.099-0.099-0.080-0.468-0.335-0.822-0.567l-0.638-0.421 0.383-0.647c0.68-1.139 0.666-1.12 0.813-1.12 0.076 0 0.241 0.071 0.369 0.161zM17.133 21.782c-0.165 0.203-0.302 0.331-0.359 0.331-0.123 0-0.321-0.109-0.657-0.354l-0.279-0.203 0.558-0.033c0.302-0.014 0.595-0.033 0.647-0.043 0.378-0.061 0.378-0.057 0.090 0.302zM13.561 24.055c0.435 0.17 1.172 0.572 1.385 0.751 0.151 0.123 0.151 0.132 0.090 0.283-0.038 0.085-0.165 0.312-0.293 0.506-0.123 0.189-0.265 0.425-0.317 0.525-0.151 0.293-0.198 0.317-0.51 0.232-0.335-0.099-0.515-0.269-0.61-0.576-0.128-0.43-0.331-1.645-0.307-1.834 0.009-0.071 0.208-0.028 0.562 0.113z"></path>
</symbol>
<symbol id="icon-weight" viewBox="0 0 32 32">
<path fill="#f8d24e" style="fill: var(--color1, #f8d24e)" d="M16 0c8.837 0 16 7.163 16 16s-7.163 16-16 16c-8.837 0-16-7.163-16-16s7.163-16 16-16z"></path>
<path fill="#000" style="fill: var(--color2, #000)" d="M14.688 4.874c-2.861 0.424-5.218 2.013-6.085 4.093-0.277 0.657-0.351 1.061-0.351 1.853 0.005 0.585 0.027 0.802 0.117 1.118 0.186 0.621 0.319 0.937 0.596 1.382l0.255 0.414-0.287 0.352c-2.271 2.826-2.521 6.8-0.628 9.931 0.707 1.175 1.862 2.329 2.989 3.001l0.335 0.197 9.175-0.078 0.218-0.119c0.761-0.43 1.835-1.387 2.436-2.163 0.904-1.18 1.495-2.556 1.745-4.047 0.085-0.533 0.085-2.111-0.005-2.613-0.271-1.547-0.851-2.872-1.766-4.047-0.176-0.223-0.314-0.409-0.314-0.424 0-0.010 0.096-0.171 0.207-0.352 0.261-0.414 0.495-0.947 0.622-1.413 0.144-0.518 0.144-1.811 0-2.329-0.511-1.837-2.042-3.369-4.207-4.212-0.606-0.238-1.644-0.492-2.314-0.574-0.622-0.072-2.159-0.057-2.739 0.031zM17.927 5.717c2.84 0.554 4.92 2.293 5.303 4.435 0.085 0.481 0.032 1.299-0.112 1.754-0.144 0.445-0.41 0.968-0.723 1.413-0.128 0.181-0.234 0.388-0.234 0.455s0.112 0.243 0.271 0.419c1.33 1.475 2.032 3.322 2.032 5.32-0.005 2.272-0.878 4.264-2.558 5.827-0.287 0.269-0.697 0.605-0.915 0.75l-0.399 0.269-8.792 0.036-0.34-0.217c-1.234-0.802-2.346-2.127-2.963-3.534-0.777-1.78-0.856-3.845-0.223-5.698 0.335-0.963 0.782-1.749 1.463-2.577 0.277-0.331 0.404-0.528 0.404-0.621 0-0.078-0.138-0.331-0.319-0.595-0.638-0.926-0.899-1.956-0.745-2.929 0.16-0.983 0.606-1.791 1.431-2.593 1.074-1.040 2.574-1.728 4.335-1.987 0.729-0.109 2.34-0.067 3.085 0.072z"></path>
<path fill="#000" style="fill: var(--color2, #000)" d="M14.927 6.628c-2.181 0.357-3.888 1.568-4.446 3.157-0.128 0.357-0.149 0.497-0.149 1.009s0.021 0.652 0.149 1.009c0.080 0.228 0.229 0.543 0.33 0.704 0.277 0.445 0.399 0.461 0.947 0.129 0.819-0.502 1.761-0.869 2.739-1.071 0.66-0.135 1.925-0.186 2.643-0.104 1.122 0.129 2.34 0.533 3.314 1.107 0.277 0.16 0.558 0.295 0.628 0.295 0.404 0 0.92-1.164 0.92-2.070 0-2.013-1.925-3.736-4.654-4.166-0.58-0.093-1.861-0.093-2.42 0zM17.559 7.456c0.915 0.197 1.755 0.569 2.388 1.061 0.851 0.657 1.308 1.573 1.234 2.458-0.027 0.352-0.16 0.828-0.239 0.88-0.021 0.010-0.319-0.114-0.66-0.279-0.707-0.342-1.511-0.616-2.324-0.792-0.495-0.104-0.702-0.119-1.808-0.114-1.090 0-1.319 0.016-1.792 0.114-0.819 0.176-1.457 0.393-2.244 0.766-0.793 0.378-0.75 0.383-0.894-0.083-0.186-0.605-0.069-1.408 0.293-2.013 0.191-0.321 0.718-0.854 1.101-1.118 0.729-0.502 1.367-0.73 2.739-0.978 0.282-0.052 1.846 0.021 2.207 0.098z"></path>
<path fill="#000" style="fill: var(--color2, #000)" d="M16.693 14.132c-0.149 0.186-0.149 0.362 0.005 0.512 0.101 0.098 0.202 0.124 0.569 0.15 0.713 0.052 1.394 0.259 2.005 0.611 0.436 0.259 1.101 0.885 1.399 1.335 0.441 0.647 0.745 1.573 0.745 2.256 0 0.238 0.021 0.31 0.133 0.414 0.17 0.171 0.394 0.171 0.558 0 0.117-0.119 0.122-0.15 0.090-0.657-0.149-2.505-2.292-4.595-4.856-4.735l-0.532-0.031-0.117 0.145z"></path>
</symbol>
<symbol id="icon-cow" viewBox="0 0 32 32">
<path fill="#f8d24e" style="fill: var(--color1, #f8d24e)" d="M16 0c8.837 0 16 7.163 16 16s-7.163 16-16 16c-8.837 0-16-7.163-16-16s7.163-16 16-16z"></path>
<path fill="#131313" style="fill: var(--color2, #131313)" d="M8.921 4.618c-0.188 0.162-0.725 1.283-0.917 1.894-0.229 0.758-0.308 1.326-0.276 2.111 0.042 1.12 0.323 1.97 0.944 2.857 0.162 0.233 0.292 0.433 0.292 0.449 0 0.011-0.099 0.022-0.224 0.022-0.537 0-1.543 0.179-2.314 0.411-1.225 0.368-1.944 1.012-1.944 1.732 0 0.254 0.229 0.687 0.474 0.909 0.474 0.428 1.512 0.833 2.627 1.028 0.386 0.070 1.532 0.189 1.788 0.195 0.047 0 0.063 0.249 0.063 1.066 0 0.704 0.026 1.25 0.078 1.586 0.188 1.201 0.772 2.473 1.543 3.372l0.266 0.308-0.177 0.287c-0.261 0.406-0.36 0.714-0.391 1.174-0.078 1.104 0.61 2.084 1.939 2.771 2.533 1.315 6.469 0.801 7.944-1.039 0.719-0.898 0.803-1.927 0.235-2.858l-0.177-0.287 0.318-0.384c0.594-0.714 0.98-1.429 1.272-2.333 0.245-0.768 0.339-1.51 0.339-2.684 0-0.536 0.016-0.98 0.042-0.98 0.24-0.005 1.392-0.13 1.757-0.195 1.121-0.195 2.137-0.595 2.627-1.028 0.245-0.222 0.474-0.655 0.474-0.909 0-0.801-0.813-1.45-2.325-1.84-0.495-0.13-1.428-0.287-1.882-0.314l-0.214-0.016 0.235-0.325c0.292-0.395 0.657-1.164 0.798-1.667 0.396-1.456 0.151-3.15-0.698-4.768-0.355-0.671-0.599-0.828-0.886-0.563-0.11 0.103-0.156 0.244-0.261 0.752-0.323 1.618-0.923 2.901-1.798 3.848l-0.386 0.422h-8.246l-0.344-0.373c-0.855-0.942-1.475-2.273-1.798-3.897-0.104-0.509-0.151-0.649-0.261-0.752-0.172-0.157-0.339-0.152-0.532 0.016zM9.588 7.828c0.276 0.606 0.62 1.174 1.027 1.699l0.323 0.417-0.339 0.254c-0.318 0.244-0.615 0.59-0.844 0.985l-0.099 0.179-0.25-0.341c-0.855-1.18-1.069-2.625-0.615-4.124 0.219-0.725 0.214-0.72 0.412-0.092 0.094 0.303 0.271 0.763 0.386 1.023zM23.157 6.686c0.214 0.644 0.297 1.158 0.297 1.824 0 0.985-0.261 1.818-0.808 2.565l-0.245 0.336-0.182-0.308c-0.214-0.379-0.579-0.774-0.912-1.001-0.141-0.092-0.25-0.184-0.25-0.195 0-0.016 0.099-0.141 0.224-0.276 0.579-0.644 1.199-1.802 1.506-2.798 0.094-0.308 0.188-0.563 0.203-0.563s0.094 0.189 0.167 0.417zM20.493 10.642c0.579 0.244 1.131 0.942 1.22 1.532 0.047 0.325 0.156 0.53 0.297 0.563 0.063 0.011 0.495 0.049 0.959 0.081 1.647 0.108 2.945 0.46 3.498 0.942 0.255 0.227 0.229 0.417-0.078 0.649-0.615 0.465-1.944 0.817-3.3 0.877-0.897 0.038-1.084 0.065-1.204 0.189-0.089 0.092-0.099 0.189-0.099 1.169 0 1.326-0.068 2.089-0.235 2.706-0.235 0.839-0.698 1.732-1.241 2.365l-0.224 0.26-0.464-0.276c-0.563-0.336-1.089-0.552-1.72-0.698-1.976-0.471-4.16-0.184-5.63 0.741l-0.339 0.216-0.214-0.254c-0.292-0.341-0.751-1.072-0.933-1.483-0.401-0.931-0.521-1.689-0.521-3.355 0-1.618 0.083-1.499-1.116-1.564-1.532-0.081-2.7-0.357-3.435-0.823-0.542-0.346-0.454-0.655 0.302-1.017 0.725-0.352 1.72-0.563 3.102-0.649 1.074-0.070 1.1-0.087 1.199-0.606 0.146-0.785 0.725-1.434 1.454-1.64 0.182-0.054 1.204-0.065 4.332-0.060l4.092 0.011 0.297 0.124zM17.564 21.845c1.277 0.314 2.231 0.898 2.643 1.624 0.099 0.168 0.141 0.341 0.162 0.606 0.021 0.33 0.005 0.411-0.12 0.682-0.579 1.229-2.705 2.040-4.869 1.856-2.601-0.216-4.311-1.667-3.638-3.090 0.365-0.768 1.6-1.505 2.903-1.721 0.214-0.032 0.427-0.070 0.469-0.081s0.511-0.011 1.042 0c0.725 0.016 1.074 0.049 1.407 0.124z"></path>
<path fill="#131313" style="fill: var(--color2, #131313)" d="M12.393 13.351c-0.323 0.108-0.542 0.249-0.834 0.541-0.255 0.243-0.276 0.53-0.063 0.703 0.198 0.162 0.386 0.141 0.625-0.070 0.302-0.265 0.537-0.373 0.829-0.373 0.292-0.005 0.516 0.097 0.829 0.373 0.24 0.211 0.427 0.233 0.626 0.070 0.104-0.087 0.136-0.157 0.136-0.319 0-0.168-0.036-0.243-0.219-0.427-0.516-0.519-1.282-0.72-1.929-0.498z"></path>
<path fill="#131313" style="fill: var(--color2, #131313)" d="M18.471 13.346c-0.334 0.124-0.761 0.406-0.933 0.617-0.167 0.206-0.172 0.438 0 0.611 0.172 0.184 0.381 0.173 0.631-0.032 0.615-0.509 1.074-0.525 1.642-0.054 0.146 0.124 0.313 0.222 0.365 0.222 0.255 0 0.464-0.227 0.464-0.498 0-0.173-0.433-0.573-0.824-0.763-0.433-0.211-0.949-0.249-1.345-0.103z"></path>
<path fill="#131313" style="fill: var(--color2, #131313)" d="M13.149 23.361c-0.151 0.146-0.203 0.357-0.125 0.525 0.057 0.135 0.146 0.189 0.506 0.287 0.162 0.043 0.229 0.097 0.287 0.233 0.073 0.179 0.078 0.179 0.48 0.195l0.401 0.016v-0.151c-0.005-0.216-0.125-0.53-0.281-0.747-0.182-0.249-0.5-0.411-0.86-0.444-0.245-0.022-0.308-0.011-0.407 0.087z"></path>
<path fill="#131313" style="fill: var(--color2, #131313)" d="M18.127 23.323c-0.261 0.070-0.636 0.422-0.74 0.698-0.047 0.124-0.094 0.346-0.099 0.492-0.010 0.233 0.010 0.287 0.136 0.4 0.308 0.271 0.714 0.060 0.714-0.373 0-0.211 0.156-0.357 0.433-0.411 0.292-0.054 0.396-0.173 0.401-0.449 0-0.363-0.323-0.503-0.844-0.357z"></path>
</symbol>
<symbol id="icon-arrow" viewBox="0 0 82 32">
<path d="M81.414 17.414c0.781-0.781 0.781-2.047 0-2.828l-12.728-12.728c-0.781-0.781-2.047-0.781-2.828 0s-0.781 2.047 0 2.828l11.314 11.314-11.314 11.314c-0.781 0.781-0.781 2.047 0 2.828s2.047 0.781 2.828 0l12.728-12.728zM0 18h80v-4h-80v4z"></path>
</symbol>
<symbol id="icon-ep_arrow-right-bold" viewBox="0 0 32 32">
<path d="M10.586 3.272c-0.375 0.375-0.586 0.884-0.586 1.414s0.211 1.039 0.586 1.414l9.9 9.9-9.9 9.9c-0.364 0.377-0.566 0.882-0.561 1.407s0.215 1.026 0.586 1.397 0.872 0.581 1.397 0.586c0.524 0.005 1.030-0.197 1.407-0.561l11.314-11.314c0.375-0.375 0.586-0.884 0.586-1.414s-0.211-1.039-0.586-1.414l-11.314-11.314c-0.375-0.375-0.884-0.586-1.414-0.586s-1.039 0.211-1.414 0.586z"></path>
</symbol>
<symbol id="icon-logo" viewBox="0 0 16 32">
<path fill="#f8d24e" style="fill: var(--color1, #f8d24e)" d="M15.5 14.109c1.613-4.366-1.728-6.756-3.942-8.327-0.423-0.321-0.847-0.621-1.19-0.895-0.613-0.516-1.064-1.196-1.301-1.96s-0.248-1.58-0.033-2.351c0.022-0.081 0.022-0.166-0.002-0.246s-0.068-0.153-0.13-0.209c-0.062-0.057-0.138-0.095-0.22-0.112s-0.167-0.010-0.246 0.018c-0.746 0.294-1.439 0.706-2.054 1.22-0.59 0.454-1.069 1.037-1.398 1.703s-0.502 1.4-0.503 2.143c-0.418 0.328-0.787 0.713-1.097 1.144-0.569 0.775-0.855 1.722-0.809 2.681-0.678 0.621-1.183 1.407-1.466 2.281s-0.333 1.806-0.147 2.706c-0.27 0.163-0.479 0.409-0.594 0.701s-0.132 0.615-0.047 0.917 0.268 0.569 0.52 0.758c0.252 0.189 0.559 0.29 0.874 0.288h0.030v2.483c0 0.252 0.1 0.494 0.279 0.672s0.421 0.278 0.674 0.278h0.741l1.207 10.43c0.025 0.232 0.135 0.447 0.31 0.603s0.4 0.242 0.634 0.242h5.022c0.234-0 0.46-0.087 0.635-0.242s0.286-0.37 0.313-0.602l1.207-10.43h0.741c0.253 0 0.495-0.1 0.674-0.278s0.279-0.42 0.279-0.672v-2.483h0.030c0.383 0 0.75-0.152 1.021-0.422s0.423-0.636 0.423-1.018c0.002-0.191-0.035-0.38-0.107-0.556s-0.18-0.336-0.316-0.47l-0.013 0.004zM4.631 6.188c0.61 2.284 2.964 3.184 5.111 3.986 0.058 0.035 0.123 0.058 0.19 0.065s0.136 0 0.2-0.021c0.064-0.022 0.123-0.057 0.172-0.104s0.087-0.104 0.111-0.167 0.034-0.131 0.030-0.198c-0.005-0.067-0.024-0.133-0.058-0.192s-0.079-0.11-0.134-0.149c-0.055-0.039-0.118-0.066-0.185-0.078-2.312-0.874-4.492-1.689-4.657-4.024-0.039-0.642 0.082-1.283 0.352-1.867s0.68-1.093 1.194-1.481c0.322-0.267 0.668-0.505 1.033-0.709-0.024 0.292-0.024 0.586 0 0.878 0.049 0.669 0.232 1.322 0.539 1.919s0.731 1.126 1.247 1.557c0.351 0.3 0.788 0.608 1.27 0.937 1.114 0.798 2.38 1.689 3.184 2.897 0.429 0.619 0.696 1.336 0.777 2.084s-0.028 1.505-0.315 2.201h-1.871c-3.857 0-8.29-1.064-9.167-4.045-0.174-0.613-0.172-1.263 0.004-1.875s0.521-1.164 0.995-1.591l-0.021-0.021zM8.103 20.582l1.414 1.41-1.414 1.41-1.414-1.419 1.414-1.402zM11.346 24.286l-1.169 1.165-1.414-1.41 1.414-1.406 1.228 1.22-0.059 0.431zM8.103 27.52l-1.414-1.41 1.414-1.41 1.414 1.41-1.414 1.41zM7.455 24.049l-1.414 1.41-1.177-1.174-0.051-0.422 1.228-1.22 1.414 1.406zM5.389 26.11l-0.284 0.283-0.072-0.642 0.356 0.359zM5.24 27.554l0.8-0.798 1.554 1.562c0.008 0.032 0.018 0.063 0.030 0.093h-2.286l-0.097-0.857zM10.169 26.756l0.8 0.798-0.097 0.845h-2.35l1.647-1.643zM11.1 26.393l-0.284-0.283 0.36-0.359-0.076 0.642zM11.524 22.702l-0.707-0.718 0.898-0.895-0.191 1.613zM10.165 21.342l-1.342-1.334h2.684l-1.342 1.334zM6.036 21.342l-1.342-1.334h2.684l-1.342 1.334zM10.609 30.362h-5.017c-0.008-0.001-0.015-0.004-0.020-0.010s-0.009-0.012-0.010-0.020l-0.119-1.013h5.318l-0.114 1.013c-0.001 0.008-0.005 0.016-0.011 0.021s-0.014 0.008-0.023 0.008h-0.004zM14.492 15.651h-1.474c-0.064-0.006-0.129 0.001-0.19 0.021s-0.117 0.053-0.165 0.096c-0.048 0.043-0.086 0.096-0.112 0.154s-0.040 0.122-0.040 0.186c0 0.064 0.013 0.128 0.040 0.186s0.064 0.111 0.112 0.154c0.048 0.043 0.104 0.076 0.165 0.096s0.126 0.027 0.19 0.021h0.525v2.483c-0.001 0.008-0.005 0.016-0.011 0.021s-0.014 0.008-0.023 0.008h-10.827c-0.008 0-0.016-0.003-0.023-0.008s-0.010-0.013-0.011-0.021v-2.483h8.388c0.114-0.011 0.22-0.064 0.297-0.149s0.12-0.195 0.12-0.309-0.043-0.225-0.12-0.309c-0.077-0.085-0.183-0.138-0.297-0.149h-9.315c-0.073 0.006-0.146-0.002-0.215-0.025s-0.133-0.061-0.186-0.11c-0.054-0.049-0.097-0.109-0.126-0.175s-0.045-0.139-0.045-0.211c0-0.073 0.015-0.145 0.045-0.211s0.072-0.126 0.126-0.175c0.054-0.049 0.117-0.086 0.186-0.11s0.142-0.032 0.215-0.025h0.961c0.114-0.011 0.22-0.064 0.297-0.149s0.12-0.195 0.12-0.309c0-0.114-0.043-0.225-0.12-0.309s-0.183-0.138-0.297-0.149h-0.847c-0.121-0.643-0.102-1.304 0.058-1.938s0.455-1.226 0.865-1.736c0.296 0.921 1.059 2.179 2.964 3.18 1.791 0.933 4.162 1.41 7.046 1.41h1.694c0.073-0.006 0.146 0.002 0.215 0.025s0.133 0.061 0.186 0.11c0.054 0.049 0.097 0.109 0.126 0.175s0.045 0.138 0.045 0.211c0 0.073-0.015 0.145-0.045 0.211s-0.072 0.126-0.126 0.175c-0.054 0.049-0.117 0.086-0.186 0.11s-0.142 0.032-0.215 0.025h0.030z"></path>
</symbol>
<symbol id="icon-open_menu" viewBox="0 0 32 32">
<path fill="#fff" style="fill: var(--color1, #fff)" d="M26.733 14h-21.467c-0.7 0-1.267 0.425-1.267 0.95v0.1c0 0.525 0.567 0.95 1.267 0.95h21.467c0.7 0 1.267-0.425 1.267-0.95v-0.1c0-0.525-0.567-0.95-1.267-0.95z"></path>
<path fill="#fff" style="fill: var(--color1, #fff)" d="M26.733 20h-21.467c-0.7 0-1.267 0.425-1.267 0.95v0.1c0 0.525 0.567 0.95 1.267 0.95h21.467c0.7 0 1.267-0.425 1.267-0.95v-0.1c0-0.525-0.567-0.95-1.267-0.95z"></path>
<path fill="#fff" style="fill: var(--color1, #fff)" d="M26.733 8h-21.467c-0.7 0-1.267 0.425-1.267 0.95v0.1c0 0.525 0.567 0.95 1.267 0.95h21.467c0.7 0 1.267-0.425 1.267-0.95v-0.1c0-0.525-0.567-0.95-1.267-0.95z"></path>
</symbol>
<symbol id="icon-close_menu" viewBox="0 0 32 32">
<path fill="#fcfcfc" style="fill: var(--color1, #fcfcfc)" d="M23.884 6.706l-7.884 7.884-7.884-7.884c-0.19-0.174-0.439-0.267-0.696-0.261s-0.502 0.11-0.684 0.292c-0.182 0.182-0.286 0.427-0.292 0.684s0.088 0.506 0.261 0.696l7.88 7.884-7.882 7.882c-0.096 0.092-0.173 0.202-0.226 0.324s-0.081 0.253-0.083 0.386 0.023 0.265 0.073 0.388c0.050 0.123 0.124 0.235 0.218 0.329s0.206 0.169 0.329 0.219 0.255 0.075 0.388 0.074c0.133-0.002 0.264-0.029 0.386-0.082s0.232-0.13 0.324-0.226l7.886-7.882 7.884 7.884c0.19 0.174 0.439 0.267 0.696 0.262s0.502-0.11 0.684-0.292c0.182-0.182 0.286-0.427 0.292-0.684s-0.088-0.506-0.262-0.696l-7.884-7.884 7.884-7.886c0.096-0.092 0.173-0.202 0.226-0.324s0.081-0.253 0.083-0.386c0.002-0.133-0.023-0.265-0.073-0.388s-0.124-0.235-0.218-0.329c-0.094-0.094-0.206-0.169-0.329-0.219s-0.255-0.075-0.388-0.074-0.264 0.029-0.386 0.082c-0.122 0.053-0.232 0.13-0.324 0.226v0.002z"></path>
</symbol>
<symbol id="icon-close_menu" viewBox="0 0 32 32">
<path fill="#fcfcfc" style="fill: var(--color1, #fcfcfc)" d="M28.614 1.13l-12.614 12.614-12.614-12.614c-0.303-0.278-0.702-0.427-1.113-0.418s-0.803 0.176-1.094 0.467c-0.291 0.291-0.458 0.683-0.467 1.094s0.141 0.81 0.418 1.113l12.608 12.614-12.611 12.611c-0.154 0.147-0.277 0.323-0.362 0.518s-0.13 0.405-0.133 0.618 0.037 0.424 0.117 0.621c0.080 0.197 0.199 0.376 0.349 0.527s0.329 0.27 0.526 0.35 0.408 0.121 0.621 0.118c0.213-0.002 0.423-0.047 0.618-0.132s0.372-0.208 0.519-0.361l12.618-12.611 12.614 12.614c0.303 0.278 0.702 0.428 1.113 0.418s0.803-0.176 1.094-0.467c0.291-0.291 0.458-0.683 0.467-1.094s-0.141-0.81-0.418-1.113l-12.614-12.614 12.614-12.618c0.154-0.147 0.277-0.323 0.362-0.518s0.13-0.405 0.133-0.618c0.003-0.213-0.037-0.424-0.117-0.621s-0.199-0.376-0.349-0.527c-0.15-0.151-0.329-0.27-0.526-0.35s-0.408-0.121-0.621-0.118-0.423 0.047-0.618 0.132c-0.195 0.085-0.372 0.208-0.519 0.362v0.003z"></path>
</symbol>
</defs>
</svg>
